HIERARCHY
ROOT Hips
{
 OFFSET 0.000000 0.000000 0.000000
 CHANNELS 6 Xposition Yposition Zposition Yrotation Xrotation Zrotation
 JOINT Chest
 {
  OFFSET 0.000000 14.374500 -0.011500
  CHANNELS 3 Yrotation Xrotation Zrotation
  JOINT Chest2
  {
   OFFSET 0.000000 9.203400 0.023400
   CHANNELS 3 Yrotation Xrotation Zrotation
   JOINT Chest3
   {
    OFFSET 0.000000 9.162700 0.000000
    CHANNELS 3 Yrotation Xrotation Zrotation
    JOINT Chest4
    {
     OFFSET 0.000000 9.153300 0.000000
     CHANNELS 3 Yrotation Xrotation Zrotation
     JOINT Neck
     {
      OFFSET 0.000000 13.353600 0.000000
      CHANNELS 3 Yrotation Xrotation Zrotation
      JOINT Head
      {
       OFFSET 0.000000 8.573800 0.049400
       CHANNELS 3 Yrotation Xrotation Zrotation
       End Site
       {
        OFFSET 0.000000 16.219200 0.026100
       }
      }
     }
     JOINT RightCollar
     {
      OFFSET -2.497100 8.876100 0.000000
      CHANNELS 3 Yrotation Xrotation Zrotation
      JOINT RightShoulder
      {
       OFFSET -12.289200 0.000000 0.000000
       CHANNELS 3 Yrotation Xrotation Zrotation
       JOINT RightElbow
       {
        OFFSET 0.000000 -28.194900 0.000000
        CHANNELS 3 Yrotation Xrotation Zrotation
        JOINT RightWrist
        {
         OFFSET 0.000000 -23.009700 0.007900
         CHANNELS 3 Yrotation Xrotation Zrotation
         End Site
         {
          OFFSET 0.000000 -17.151500 0.000000
         }
        }
       }
      }
     }
     JOINT LeftCollar
     {
      OFFSET 2.497100 8.876100 0.000000
      CHANNELS 3 Yrotation Xrotation Zrotation
      JOINT LeftShoulder
      {
       OFFSET 12.289200 0.000000 0.000000
       CHANNELS 3 Yrotation Xrotation Zrotation
       JOINT LeftElbow
       {
        OFFSET 0.000000 -28.194900 0.000000
        CHANNELS 3 Yrotation Xrotation Zrotation
        JOINT LeftWrist
        {
         OFFSET 0.000000 -23.009700 0.007900
         CHANNELS 3 Yrotation Xrotation Zrotation
         End Site
         {
          OFFSET 0.000000 -17.151500 0.000000
         }
        }
       }
      }
     }
    }
   }
  }
 }
 JOINT RightHip
 {
  OFFSET -11.777600 0.056700 0.005700
  CHANNELS 3 Yrotation Xrotation Zrotation
  JOINT RightKnee
  {
   OFFSET 0.000000 -39.966000 -0.004200
   CHANNELS 3 Yrotation Xrotation Zrotation
   JOINT RightAnkle
   {
    OFFSET 0.000000 -41.981900 0.027400
    CHANNELS 3 Yrotation Xrotation Zrotation
    JOINT RightToe
    {
     OFFSET 0.000000 -9.910600 16.950100
     CHANNELS 3 Yrotation Xrotation Zrotation
     End Site
     {
      OFFSET 0.000000 -1.461000 6.191600
     }
    }
   }
  }
 }
 JOINT LeftHip
 {
  OFFSET 11.777600 0.056700 0.005700
  CHANNELS 3 Yrotation Xrotation Zrotation
  JOINT LeftKnee
  {
   OFFSET 0.000000 -39.966000 -0.004200
   CHANNELS 3 Yrotation Xrotation Zrotation
   JOINT LeftAnkle
   {
    OFFSET 0.000000 -41.981900 0.027400
    CHANNELS 3 Yrotation Xrotation Zrotation
    JOINT LeftToe
    {
     OFFSET 0.000000 -9.910600 16.950100
     CHANNELS 3 Yrotation Xrotation Zrotation
     End Site
     {
      OFFSET 0.000000 -1.461000 6.191600
     }
    }
   }
  }
 }
}
MOTION
Frames: 16
Frame Time: 0.008333
0.000000 91.618700 0.000000 0.000000 -5.767877 0.000000 0.000000 11.653817 0.000000 0.000000 -5.885947 0.000000 0.000000 -0.000000 0.000000 0.000000 -0.000000 0.000000 0.000000 12.528835 0.000000 0.000000 0.711642 0.000000 0.000000 -0.000000 0.000000 0.000000 0.000000 -90.000000 0.000000 -2.309062 0.000000 0.000000 2.309062 0.000000 0.000000 -0.000000 0.000000 0.000000 -0.000000 90.000000 0.000000 -2.309062 0.000000 0.000000 2.309062 0.000000 0.000000 8.520406 0.000000 0.000000 1.905762 0.000000 -0.000000 -4.658285 0.000000 0.000000 -0.000000 0.000000 0.000000 8.520406 0.000000 0.000000 1.905762 0.000000 -0.000000 -4.658285 0.000000 0.000000 -0.000000 0.000000
-4.399190 152.685572 86.107903 175.197615 -48.854530 -3.142600 4.416743 29.144389 2.583586 0.677940 5.505302 0.353471 1.076175 8.612184 0.592378 3.260771 23.315845 2.066762 1.281570 13.521884 2.254349 0.800845 -11.501206 2.100256 3.020767 -2.686600 0.287950 8.379195 -18.885427 -10.581374 47.720102 -65.793259 -32.356843 36.215933 35.603589 -0.448076 -12.058582 -7.524628 -0.655593 -4.615628 -18.079528 8.162018 -18.517562 -60.132986 -1.913388 -23.182864 11.906064 16.347028 6.569357 -28.416785 -0.709500 -71.882519 87.183340 -74.085456 4.255597 -24.975811 8.435551 0.057888 -0.211919 0.037920 0.929238 -21.455974 -2.167899 140.341577 72.469985 151.751872 1.602821 -16.986302 -9.781725 0.152315 -3.946528 -0.586927
-5.097297 145.644693 87.546030 175.343552 -48.816908 -3.364856 4.376568 29.102955 2.713384 0.679062 5.504766 0.349097 1.074793 8.611211 0.595695 3.258596 23.314948 2.071118 1.288379 13.522453 2.235259 0.846025 -11.504583 2.034367 3.025015 -2.692112 0.279358 8.379637 -18.877854 -10.579967 47.708015 -65.794276 -32.346070 36.214753 35.596921 -0.444392 -12.061085 -7.523322 -0.661115 -4.604861 -18.078410 8.160489 -18.533449 -60.127030 -1.909827 -23.177183 11.901768 16.360083 6.414813 -28.494217 -0.584526 -72.734197 87.197140 -74.934432 4.271535 -25.064365 8.446047 0.022951 -0.136656 0.013420 0.786075 -21.476477 -2.040950 140.306971 72.494841 151.718414 1.664094 -16.896651 -9.758111 0.061926 0.120464 0.036221
-5.678972 139.847223 88.728692 175.445129 -48.792614 -3.505784 4.339782 29.077179 2.790685 0.677969 5.503423 0.349773 1.076008 8.612729 0.589648 3.257569 23.314622 2.074631 1.290291 13.522565 2.226376 0.857229 -11.506784 2.018172 3.023827 -2.695047 0.278543 8.384095 -18.872831 -10.584365 47.705345 -65.795127 -32.343479 36.213000 35.592950 -0.441140 -12.068336 -7.522626 -0.657784 -4.591908 -18.079552 8.152629 -18.561562 -60.110942 -1.884711 -23.166558 11.889296 16.371793 6.310989 -28.548951 -0.510363 -73.455679 87.207321 -75.657352 4.264938 -25.134878 8.453501 0.005079 -0.076839 0.002970 0.689981 -21.484198 -1.969097 140.268600 72.516546 151.679890 1.693061 -16.825319 -9.748819 0.027510 0.066974 0.016091
-6.103377 135.661250 89.581391 175.492055 -48.783053 -3.569373 4.321569 29.066325 2.826834 0.675500 5.504519 0.352510 1.075398 8.613078 0.590390 3.256031 23.315093 2.070065 1.300884 13.518307 2.210179 0.857500 -11.506965 2.011592 3.016687 -2.699141 0.276211 8.391723 -18.865486 -10.585440 47.702268 -65.804314 -32.339364 36.215936 35.596927 -0.439012 -12.074772 -7.522642 -0.655402 -4.585160 -18.077797 8.151020 -18.561462 -60.110317 -1.882516 -23.168968 11.886132 16.377335 6.265096 -28.576835 -0.475933 -73.886218 87.213026 -76.093354 4.267207 -25.173825 8.455513 0.005279 -0.045750 0.003086 0.642812 -21.484499 -1.940529 140.236264 72.525762 151.644955 1.705241 -16.783299 -9.748701 0.013188 0.036266 0.007712
-6.368855 133.017266 90.120789 175.533522 -48.775230 -3.628169 4.308146 29.057436 2.859679 0.673607 5.502691 0.359960 1.074594 8.613787 0.591986 3.253450 23.317046 2.068407 1.320056 13.506927 2.174061 0.884446 -11.517922 1.963938 3.016237 -2.713377 0.265750 8.380785 -18.855890 -10.578425 47.691685 -65.806268 -32.319899 36.209153 35.594703 -0.442811 -12.076622 -7.523585 -0.663136 -4.583921 -18.074438 8.151968 -18.579518 -60.101630 -1.859175 -23.168762 11.869862 16.380006 6.221361 -28.597184 -0.445124 -74.114895 87.219753 -76.325943 4.280055 -25.205342 8.449644 0.001517 -0.017998 0.000887 0.602681 -21.487137 -1.911472 140.211145 72.529936 151.620429 1.710500 -16.750477 -9.749122 0.001504 0.011852 0.000879
-6.516037 131.563206 90.417439 175.544186 -48.772889 -3.645855 4.305392 29.054135 2.871821 0.672610 5.500892 0.361558 1.074608 8.613010 0.592531 3.253995 23.320839 2.069789 1.323140 13.503366 2.161713 0.905859 -11.525889 1.933920 3.013471 -2.719495 0.258918 8.376511 -18.854565 -10.569044 47.653409 -65.813071 -32.272336 36.202834 35.599106 -0.464745 -12.080190 -7.528083 -0.663601 -4.600940 -18.058596 8.158318 -18.578961 -60.101575 -1.830222 -23.173499 11.851674 16.374158 6.208473 -28.604272 -0.433102 -74.203052 87.218707 -76.416518 4.283861 -25.210953 8.449977 -0.000303 -0.010431 -0.000177 0.590886 -21.488134 -1.905687 140.178907 72.523929 151.598759 1.703079 -16.740892 -9.763097 0.003083 0.004094 0.001803
-6.586304 130.870526 90.559249 175.548965 -48.770939 -3.652493 4.299629 29.048004 2.879046 0.674582 5.501923 0.359469 1.074505 8.614016 0.590714 3.253029 23.318358 2.072834 1.327914 13.504222 2.149627 0.912793 -11.527547 1.923472 3.013032 -2.716117 0.252764 8.373687 -18.856407 -10.561163 47.639368 -65.815393 -32.251794 36.198352 35.603222 -0.471695 -12.084454 -7.537682 -0.653877 -4.597785 -18.038643 8.147701 -18.606590 -60.099573 -1.798062 -23.162714 11.839421 16.374256 6.201189 -28.607237 -0.428258 -74.220464 87.213199 -76.434165 4.290291 -25.211930 8.447883 -0.000069 -0.006673 -0.000040 0.585677 -21.490270 -1.908270 140.157967 72.522778 151.580396 1.703671 -16.731832 -9.766933 0.001621 -0.000023 0.000948
-6.614676 130.587214 90.617651 175.548835 -48.771163 -3.653987 4.301996 29.046639 2.886049 0.672654 5.501157 0.358459 1.074501 8.613206 0.589372 3.256051 23.313098 2.078615 1.350908 13.492712 2.119399 0.891577 -11.514588 1.937065 3.006811 -2.713938 0.243122 8.373121 -18.854178 -10.551497 47.618945 -65.818011 -32.226525 36.199676 35.607223 -0.475760 -12.090945 -7.537071 -0.655323 -4.597705 -18.026876 8.147456 -18.628822 -60.097043 -1.772655 -23.155833 11.828484 16.370656 6.197720 -28.606482 -0.425629 -74.214015 87.210035 -76.425480 4.288781 -25.210945 8.442113 -0.000661 -0.004199 -0.000387 0.584169 -21.489719 -1.911336 140.140757 72.523642 151.565512 1.703485 -16.725085 -9.770631 0.001585 -0.002119 0.000926
-6.624113 130.488706 90.638456 175.547299 -48.772098 -3.653748 4.308690 29.046203 2.896161 0.667466 5.501702 0.353242 1.075201 8.610278 0.595130 3.267854 23.309905 2.095501 1.350252 13.488557 2.088414 0.899104 -11.518590 1.913961 2.992641 -2.723110 0.221547 8.371216 -18.840379 -10.542976 47.607104 -65.819232 -32.212659 36.201809 35.608968 -0.477620 -12.105077 -7.536510 -0.672231 -4.599876 -18.017768 8.149836 -18.688312 -60.083518 -1.709770 -23.135646 11.807761 16.372272 6.195181 -28.607545 -0.425622 -74.312688 87.207449 -76.523524 4.300379 -25.206828 8.436122 -0.000293 -0.003015 -0.000171 0.584454 -21.488590 -1.912233 140.135744 72.525606 151.561368 1.699663 -16.719522 -9.766117 0.002881 -0.002000 0.001684
-6.628963 130.460183 90.644482 175.556717 -48.774445 -3.651094 4.301208 29.046823 2.894975 0.671285 5.504816 0.353399 1.075021 8.610303 0.596802 3.260445 23.305845 2.097556 1.361410 13.479634 2.066584 0.952189 -11.548226 1.846613 2.988409 -2.723735 0.213912 8.370365 -18.838248 -10.540255 47.572799 -65.830420 -32.177598 36.218985 35.603659 -0.477907 -12.114023 -7.543822 -0.672936 -4.595316 -18.001119 8.145670 -18.715844 -60.078097 -1.679053 -23.138466 11.787105 16.375531 6.192620 -28.604489 -0.437506 -74.378580 87.209597 -76.589923 4.302264 -25.206138 8.433632 0.000444 -0.004234 0.000260 0.581171 -21.483650 -1.930026 140.117307 72.525224 151.540845 1.702683 -16.718409 -9.764417 0.003098 0.000712 0.001811
-6.629888 130.453048 90.646728 175.555106 -48.774617 -3.647252 4.300413 29.042979 2.899744 0.673091 5.500414 0.362182 1.073743 8.614630 0.588857 3.254187 23.308121 2.093901 1.371472 13.472018 2.051982 0.975892 -11.559871 1.813697 2.986926 -2.726401 0.209532 8.367163 -18.837783 -10.527914 47.538479 -65.838982 -32.147876 36.233605 35.602762 -0.480219 -12.122047 -7.550764 -0.667847 -4.585355 -17.990259 8.140766 -18.738106 -60.065089 -1.660166 -23.127965 11.767154 16.382607 6.192970 -28.608984 -0.439144 -74.487768 87.209336 -76.700873 4.304398 -25.202204 8.430945 0.001405 -0.006915 0.000821 0.582588 -21.482068 -1.937479 140.105286 72.524257 151.527379 1.703910 -16.717853 -9.763488 0.002997 0.001568 0.001752
-6.631078 130.451927 90.647257 175.553841 -48.777419 -3.640821 4.298038 29.041200 2.900291 0.672636 5.499725 0.362971 1.072126 8.608341 0.598996 3.246738 23.318454 2.080233 1.374318 13.471509 2.043559 1.011019 -11.577106 1.767331 2.996781 -2.758386 0.211039 8.347896 -18.805806 -10.500191 47.531957 -65.837125 -32.150326 36.195086 35.591210 -0.493435 -12.128270 -7.560974 -0.661612 -4.577261 -17.979337 8.133254 -18.742543 -60.056711 -1.655940 -23.121873 11.757370 16.386888 6.195971 -28.607711 -0.440765 -74.585874 87.210709 -76.799023 4.284913 -25.200407 8.432535 -0.001263 -0.006528 -0.000738 0.581193 -21.477934 -1.950787 140.067398 72.520651 151.483407 1.705398 -16.710635 -9.760464 0.001806 0.003110 0.001056
-6.630397 130.452251 90.647525 175.555252 -48.781071 -3.644377 4.301008 29.040566 2.908377 0.672814 5.497100 0.364874 1.071501 8.606149 0.601020 3.250261 23.306874 2.099310 1.377288 13.478062 2.005999 1.010071 -11.573463 1.760248 2.991498 -2.746309 0.192284 8.341648 -18.796654 -10.480946 47.517460 -65.836938 -32.150196 36.170300 35.582707 -0.497387 -12.139608 -7.554414 -0.676278 -4.571827 -17.972038 8.123640 -18.749053 -60.047240 -1.647710 -23.119691 11.745926 16.395670 6.192805 -28.603735 -0.435171 -74.576081 87.208959 -76.789411 4.286719 -25.202242 8.428870 -0.000482 -0.007698 -0.000282 0.578890 -21.475622 -1.954009 140.077971 72.526091 151.497387 1.711784 -16.693324 -9.760383 0.004503 0.003930 0.002633
-6.630495 130.452276 90.647952 175.560517 -48.781990 -3.648725 4.299336 29.040186 2.910625 0.675074 5.492139 0.368903 1.070970 8.603169 0.603425 3.250421 23.303359 2.106316 1.411602 13.455527 1.959952 1.015982 -11.567925 1.737084 2.988832 -2.743169 0.185029 8.334633 -18.785965 -10.459101 47.538516 -65.825885 -32.176455 36.117984 35.578009 -0.512957 -12.150138 -7.563507 -0.665125 -4.559257 -17.954793 8.097840 -18.790387 -60.019619 -1.606687 -23.097499 11.714720 16.414501 6.189765 -28.603825 -0.432690 -74.642539 87.216475 -76.854177 4.276789 -25.205218 8.424447 -0.000549 -0.008337 -0.000321 0.575260 -21.475881 -1.955911 140.077254 72.530555 151.495880 1.706779 -16.680085 -9.752307 0.004586 0.006375 0.002681
-6.630616 130.451959 90.648615 175.564887 -48.780644 -3.653046 4.299161 29.034350 2.915390 0.677605 5.491573 0.372542 1.067257 8.603959 0.601464 3.258704 23.296246 2.118123 1.424759 13.448076 1.931678 1.048007 -11.581776 1.690651 2.985008 -2.752751 0.180571 8.324707 -18.763525 -10.444299 47.491557 -65.840576 -32.150900 36.100925 35.566832 -0.519549 -12.160506 -7.557738 -0.674812 -4.559655 -17.952877 8.097077 -18.803989 -60.008173 -1.594865 -23.121625 11.695015 16.437011 6.187150 -28.606623 -0.431981 -74.723090 87.217666 -76.932182 4.279146 -25.206758 8.418758 -0.000080 -0.007843 -0.000047 0.573149 -21.482864 -1.961262 140.063305 72.529284 151.484150 1.702987 -16.661144 -9.749088 0.004015 0.006166 0.002348
